<?xml version="1.0" encoding="UTF-8"?>
<svg width="60px" height="20px" viewBox="0 0 16 17" version="1.1" xmlns="http://www.w3.org/2000/svg" xmlns:xlink="http://www.w3.org/1999/xlink">
    <!-- Generator: sketchtool 60 (101010) - https://sketch.com -->
    <title>A5B40C8D-0DAF-45A0-A6D4-92A008775348</title>
    <desc>Created with sketchtool.</desc>
    <g id="Page-1" stroke="none" stroke-width="1" fill="#ffffff" fill-rule="evenodd">
        <g id="UI-Kit-module-8" transform="translate(-1044.000000, -566.000000)" fill="white" fill-rule="nonzero">
            <g id="atoms/icon/a-icon-attach" transform="translate(1027.000000, 566.000000)">
                <g id="link">
                    <path d="M14.9,1.16875 C13.5,-0.31875 11.2,-0.31875 9.8,1.16875 L5.4,5.7375 C4,7.33125 4,9.66875 5.4,11.2625 C5.5,11.36875 5.7,11.475 5.8,11.58125 L7.3,9.9875 C7.2,9.88125 7,9.775 6.9,9.66875 C6.3,9.03125 6.3,7.96875 6.9,7.33125 L11.3,2.65625 C11.9,2.01875 12.9,2.01875 13.5,2.65625 C14.1,3.29375 14.1,4.35625 13.5,4.99375 L12.2,6.375 C12.6,7.225 12.7,8.18125 12.6,9.03125 L14.9,6.5875 C16.4,5.1 16.4,2.65625 14.9,1.16875 L14.9,1.16875 Z" id="Path"></path>
                    <path d="M10.2,5.41875 L8.7,7.0125 C8.7,7.0125 9,7.225 9.1,7.33125 C9.7,7.96875 9.7,9.03125 9.1,9.66875 L4.7,14.34375 C4.1,14.98125 3.1,14.98125 2.5,14.34375 C1.9,13.70625 1.9,12.64375 2.5,12.00625 L3.8,10.625 C3.4,9.775 3.7,9.24375 3.4,7.96875 L1.1,10.4125 C-0.3,11.9 -0.3,14.34375 1.1,15.83125 C2.5,17.31875 4.8,17.31875 6.2,15.83125 L10.6,11.15625 C12,9.66875 12,7.225 10.6,5.7375 C10.4,5.63125 10.2,5.41875 10.2,5.41875 Z" id="Path"></path>
                </g>
            </g>
        </g>
    </g>
    <g id="Page-1" stroke="none" stroke-width="1" fill="white" fill-rule="evenodd">
        <g id="UI-Kit-module-8" transform="translate(-1048.000000, -566.000000)">
            <g id="atoms/icon/a-icon-search-1" transform="translate(1064.000000, 566.000000)">
                <g id="magnifying-glass" fill="#FFFFFF" fill-rule="nonzero">
                    <path d="M12.4755081,10.9730795 C13.312058,9.83068926 13.8124382,8.42747331 13.8124382,6.90627576 C13.8124382,3.09828631 10.7141699,0 6.9062026,0 C3.09823531,0 0,3.09828631 0,6.90627576 C0,10.7142652 3.09826828,13.8125515 6.90623557,13.8125515 C8.42742427,13.8125515 9.83076395,13.3121025 10.9731475,12.4755477 L15.4975735,17 L17,15.4975648 C17,15.4975318 12.4755081,10.9730795 12.4755081,10.9730795 L12.4755081,10.9730795 Z M6.90623557,11.6875309 C4.26970195,11.6875309 2.12500824,9.54282472 2.12500824,6.90627576 C2.12500824,4.2697268 4.26970195,2.12502061 6.90623557,2.12502061 C9.54276919,2.12502061 11.6874629,4.2697268 11.6874629,6.90627576 C11.6874629,9.54282472 9.54273622,11.6875309 6.90623557,11.6875309 Z" id="Shape"></path>
                </g>
                <line x1="7" y1="4" x2="7" y2="10" id="Line" stroke="#FFFFFF" stroke-width="0.5" stroke-linecap="square"></line>
                <line x1="7" y1="4" x2="7" y2="10" id="Line" stroke="#FFFFFF" stroke-width="0.5" stroke-linecap="square" transform="translate(7.000000, 7.000000) rotate(90.000000) translate(-7.000000, -7.000000) "></line>
            </g>
        </g>
    </g>
</svg>
